<?xml version="1.0" encoding="UTF-8"?>
<!DOCTYPE svg PUBLIC "-//W3C//DTD SVG 1.1//EN" "http://www.w3.org/Graphics/SVG/1.1/DTD/svg11.dtd">
<!-- Creator: CorelDRAW X6 -->
<svg xmlns="http://www.w3.org/2000/svg" xml:space="preserve" width="411px" height="228px" version="1.1" style="shape-rendering:geometricPrecision; text-rendering:geometricPrecision; image-rendering:optimizeQuality; fill-rule:evenodd; clip-rule:evenodd"
viewBox="0 0 447 249"
 xmlns:xlink="http://www.w3.org/1999/xlink">
 <defs>
  <style type="text/css">
   <![CDATA[
    .fil0 {fill:#FEFEFE}
   ]]>
  </style>
 </defs>
 <g id="Layer_x0020_1">
  <metadata id="CorelCorpID_0Corel-Layer"/>
  <g id="_400395360">
   <polygon class="fil0" points="105,0 72,80 109,80 125,248 120,245 97,113 78,127 16,248 7,241 14,245 65,125 4,95 25,30 "/>
   <path class="fil0" d="M181 138l90 32 8 34 -43 44 -21 -6 -3 -43 -32 -44 1 -17zm73 50l3 12 -26 36 -6 -1 -4 -40 -18 -27 51 20z"/>
   <polygon class="fil0" points="407,131 356,157 310,200 301,152 170,81 182,122 181,134 278,164 293,209 255,249 268,243 "/>
   <polygon class="fil0" points="138,245 135,248 121,182 125,179 191,236 190,200 182,199 124,137 121,80 160,81 175,123 173,154 202,198 204,248 171,242 135,207 "/>
   <polygon class="fil0" points="35,195 0,174 129,152 178,203 185,204 185,225 126,172 23,181 37,192 "/>
   <polygon class="fil0" points="327,157 447,92 365,106 373,69 355,39 115,2 87,73 295,73 302,90 303,101 194,81 "/>
  </g>
 </g>
</svg>
